<mxfile host="app.diagrams.net" modified="2024-07-11T21:56:44.214Z" agent="Mozilla/5.0 (Windows NT 10.0; Win64; x64) AppleWebKit/537.36 (KHTML, like Gecko) Chrome/126.0.0.0 Safari/537.36" version="24.6.4" etag="JMdQNAt332zl0M4if6pR" type="github">
  <diagram name="Page-1" id="S_gzYXszcRPL8hi9D7g0">
    <mxGraphModel>
      <root>
        <mxCell id="0" />
        <mxCell id="1" parent="0" />
      </root>
    </mxGraphModel>
  </diagram>
</mxfile>
